<?xml version="1.0" encoding="UTF-8"?>
<svg id="Layer_1" data-name="Layer 1" xmlns="http://www.w3.org/2000/svg" xmlns:xlink="http://www.w3.org/1999/xlink" viewBox="0 0 76 84.31">
  <defs>
    <style>
      .cls-1 {
        fill: none;
      }

      .cls-2, .cls-3, .cls-4, .cls-5, .cls-6 {
        fill: #231f20;
      }

      .cls-3 {
        stroke-width: .25px;
      }

      .cls-3, .cls-4 {
        stroke: #231f20;
        stroke-miterlimit: 10;
      }

      .cls-4, .cls-6 {
        stroke-width: .2px;
      }

      .cls-5 {
        stroke-width: .1px;
      }

      .cls-5, .cls-6 {
        stroke: #000;
      }

      .cls-7 {
        clip-path: url(#clippath-1);
      }

      .cls-8 {
        fill: #fff;
      }

      .cls-9 {
        fill: #a5a4a4;
      }

      .cls-10 {
        clip-path: url(#clippath);
      }
    </style>
    <clipPath id="clippath">
      <rect class="cls-1" y="6.31" width="374" height="78"/>
    </clipPath>
    <clipPath id="clippath-1">
      <rect class="cls-1" y="6.31" width="76" height="78"/>
    </clipPath>
  </defs>
  <g class="cls-10">
    <g class="cls-7">
      <g>
        <path class="cls-8" d="M16.4,46.78l2-4.81,2.59-4.07-1-.72,2.45-.88,2.22-.64-.96-1.09s4.01-.58,6.57,2.23c0,0,1.23.6,1.94,3.45.71,2.85,1.02,3.85,2.32,4.11,1.01.2,2.4.03,3.15-1.46,1-1.95,2.8-5.96,3.24-6.2.44-.24-1.45.11-1.45.11,0,0,.49-1.42,1.7-1.58,1.2-.15,2.13.4,2.13.4,0,0-.29-.9-1.22-1.38-.93-.48-1.38-.43-1.38-.43,0,0,1.36-.46,3.36-.12,2,.34,2.5.81,2.5.81,0,0,.03-.66-.64-1.2-.67-.54-1.56-.81-.86-.76.7.05,2.04.85,2.9,1.84.86,1,1.68,2.13,1.68,2.13l-.49-1.89s.68-.21,1.66,2c1.08,2.42,1.33,4.47,2.04,4.46.72-.01,1.2-1.33,1.3-2.32.1-.99-.21-1.07-.21-1.07l-.53.11.79-1.54s-.1-.68-.53-.57c-.43.12-.97.46-.97.46l1.09-2.35-1.67.19s1.14-1.15,1.24-1.45c.1-.3-.14-1.68-.14-1.68l-.22-.32s-2.34.72-3.97-.15c-2.08-1.1-3.44-1.7-3.96-3.19-.52-1.49-.69-1.72-.69-1.72,0,0,1.2.91,2.94.84,1.74-.06,3.62-.61,4.67.01,1.05.62,1.76,1.22,1.76,1.22,0,0,.01-1.06.04-1.6.03-.55-.37-.72-.37-.72,0,0-3.82-1.32-5.16-3.8-1.34-2.49-1.28-3.87-.54-5.7.74-1.82,4.28-6.26,4.74-6.92.46-.66,1-1.27.63-1.71-.37-.43-1.48-.79-1.48-.79,0,0,2.41,0,2.95.78.53.77.8,2.7-.15,3.75-.95,1.05-2.96,4.39-2.91,5.62.05,1.24-.5,2.83.41,3.27.91.44,1.64,1.15,2.09,1.12.45-.03.8-.19.8-.19,0,0-.4-.52.51-.33.92.19,1.44.53,1.44.53,0,0-.75-1.18-1.14-1.35-.39-.17-.3-.32-.3-.32,0,0,.48-.34,1.44-.4.97-.06,2.59,1.18,2.59,1.18,0,0-1.02-1.72-1.34-2.3-.3-.54.19-.49.19-.49,0,0,1.5.22,2.05.85.55.63.82,1.16.82,1.16,0,0,.21-.54.81-.96.61-.42,1.35-.5,1.35-.5l-.64,2.01s.91-.04,1.25-.45c.34-.41,1.67-.53,1.99-.38.32.15.25.25.25.25l-1.83.92s.91.54,1.32,1.37c.4.83.4,1.43.4,1.43l.31-.26s.06-.97.8-1.55c.74-.58,3.05-.51,2.98-2.47-.07-1.96.13-2.74-1.24-5.01-1.37-2.28-2.88-4.23-2.45-5.22.43-.99.36-1.7,1.19-1.65.82.04,1.72-.39,1.72-.39,0,0-1.47,1.01-1.08,1.65.39.64,4.33,5.19,4.98,6.89.65,1.69,1.14,3.27.64,4.9-.5,1.63-2.72,3.83-4.15,4.67-1.43.84-2.59,1.28-2.59,1.28l-1.12.34.52,1.1.26.82s.8-2.21,2.88-2.01c1.33.13,3,.7,4.09.58,1.09-.12,2.12-.45,2.12-.45,0,0-1.37,4.35-3.74,4.94-2.38.59-3.43-.06-4.25-.75-.82-.68-.91-.99-.91-.99,0,0-.74.72-.54,2.11.19,1.39-.08,2.61.33,3.06.41.45,1.31.98,1.16,1.65-.15.67-1.15.69-.79,1.18.36.49.56.92.46,1.52-.1.6.17.66-.45.84-1.18.35-1.37.19-1.37.19,0,0-.72,1.11-1.71,1.43-.99.32-.99.47-.99.47,0,0-.25.25.18.85.59.83,1,.72,1,.72,0,0-.07.63-.82.44-.74-.19-1.24-.51-1.24-.51,0,0,.4,2.22,1.24,3.61.83,1.39,1.89,3.15,1.89,3.15,0,0-1.02-.15-1.45-.67-.44-.52-.73-.75-.73-.75,0,0,.34.92.23,2.44-.11,1.52-.62,3.94-.62,3.94l-.8-1.89s0,2.37-.71,3.28c-.72.92-1.37,1.66-1.37,1.66l.34-1.89s-1.28,1.57-1.53,2.14c-.25.58-1.22,4.3-1.22,4.3,0,0-.51-.74-.53-1.36l-.02-.62s.06,1.07-1.48,2.71c-1.54,1.64-2.73,2.46-2.73,2.46l-.46.3s1.05,3.96,1.25,5.85c.2,1.89-1.01,3.59-.62,4.7.66,1.86,1.45,2.3,1.68,2.45.23.16.83.7.83.7,0,0,.96.01,1.53.82.57.81,1.22,2.59,1.22,2.59l-.37-.35c-.37-.35-.85.82-1.14,1.17-.3.35-5.23.27-6.44-.65s-1.06-1.04-1.06-1.04c0,0-.41.59-1.12.28-.71-.31-.96-.51-.93-1.09.03-.59.12-2.73.12-2.73,0,0-1.62.76-1.85.14-.24-.62,1.45-2.06,1.83-3.36.73-2.49-1.4-3.58-1.09-4.1.31-.52,1.11-.23,1.37-1.37.26-1.14-.05-2.9-.05-2.9l-.39-.29s-2.82,1.35-11.61.87c-6.1-.34-7.66-1.52-7.66-1.52,0,0,.47,1.59-.25,2.17-.72.58-1.23.66-1.63,1.18-.4.52.23.97-.68,1.25-.73.23-1.2.34-1.2.34,0,0,.6,1.57,1.39,2.99.79,1.43,1.69,3.17,3.08,4.17,1.74,1.26,2.85.48,3.22,1.03.37.55.35.3.98,1.33.63,1.03,1.11,2.17.95,2.27-.16.09-1.59-.67-1.64-.15-.05.52-.04,1.06-.04,1.06,0,0-2.84.34-5.07.25-2.14-.08-1.63-.52-1.68-1.09s.11-.93.11-.93l-1.18-.52s.69-2.11-.32-4c-1.01-1.89-1.33-2.09-3.24-3.51-1.92-1.43-2.8-2.82-2.8-2.82,0,0,.06-.19-.98.86-1.04,1.05-1.81,1.59-1.81,1.59,0,0-.55,2.01-.25,3.5.31,1.54.96,2.67,2.2,2.74,1.19.06,1.23.79,1.23.79,0,0,0,.6.51,1.43.52.83.41,1.5-.15,1.52-.56.02-.81-.61-.81-.61,0,0,.28.97-.69,1.06-.97.08-1.2-.25-2.81-.48-1.62-.24-2.46.46-2.97-.33-.51-.79-.45-.58-.07-1.38.38-.8.58-1.64.58-1.64l-.07-.43s-.91.54-1.18.12c-.27-.41-.48-1.02-.15-2.62.33-1.6.98-2.1.86-3.91-.12-1.81-.91-1.83-.44-3,.46-1.17,1.14-1.15,1.76-1.64.62-.49,1.18-.68,1.29-2.21.11-1.53-1.67-6.93-1.38-8.53.29-1.6,1.34-2.71,2.45-4.07.58-.7,1.08-1.74.6-2.17-.48-.44-.76-.72-1.52-.31-.76.41-3.34,2.23-4.8,5.44-1.61,3.53-2.94,9.52-2.94,9.52,0,0,.35.15.34,1.9,0,1.74-.58,2.65-.58,2.65l-.45-3.32s-1.33,3.74-2.35,3.97c-1.01.23-2.36-.36-2.36-.36,0,0,1.31.03,2.29-1.5.97-1.53.85-1.72.85-1.72,0,0-1.42,2.18-2.45,2.13-1.03-.05-1.4-.06-1.35-.25.05-.2,1.82-1.19,2.08-2.01.26-.81.44-1.14.44-1.14,0,0-.72.31-1.02.32-.3.02.03-.75.61-1.17.58-.42.67-.8,1.21-.91.54-.1,1.41.17,1.41.17,0,0,1.34-2.54,1.41-5.34.07-2.8-.3-4.12.26-5.65.56-1.53,2.28-5.3,4.34-6.35,2.06-1.06,2.7-1.23,3.74-1.19,1.03.05,1.91.04,1.91.04h0Z"/>
        <path class="cls-9" d="M67.43,20.87c.2.15-.48.9-.26,1.84.02.1.16.68.62.93.12.07.59.28,1.8-.38,1.79-.97,2.69-2.48,2.83-2.72.33-.57.89-1.58.92-2.95.02-.81-.16-1.45-.32-2.05-.26-.97-.63-1.73-.92-2.25.45.49,1.18,1.43,1.61,2.8.18.56.55,1.79.29,3.22-.52,2.82-3.13,4.4-4.37,5.15-1.06.64-2.03,1-2.71,1.2-.22-.43-.47-.88-.78-1.36-.37-.58-.75-1.09-1.11-1.52.3.1.59.21.89.31.02-.06.04-.12.08-.19.08-.15.19-.26.26-.32-.02-.15-.06-.75.34-1.24.25-.3.68-.59.82-.48h0Z"/>
        <path class="cls-9" d="M54.04,29.7c-.11-.2-.87.11-1.6.26-1.17.24-2.14.04-2.55-.05-1.41-.29-2.38-1.03-2.94-1.45-.86-.65-1.55-1.43-1.55-1.43-.48-.54-.72-.93-.79-.9-.08.05.26.9.76,1.67.25.38.78,1.18,1.77,1.87.47.33,1.26.79,2.33,1.01.8.17,1.39.13,2.06.1.9-.05,1.93-.13,2.4-.78.05-.07.16-.22.1-.31Z"/>
        <path class="cls-9" d="M66.78,29.3c.07-.09.76.62,1.92.9.97.24,1.79.07,2.3-.05,1.3-.29,2.16-.94,3.22-1.73.26-.2.56-.42.89-.8.34-.38.49-.67.52-.65.06.03-.21.8-.68,1.53-.62.98-1.36,1.52-1.54,1.66-.35.25-1.06.75-2.13.95-.48.09-1.81.26-3.1-.45-.91-.5-1.48-1.27-1.41-1.35Z"/>
        <path class="cls-9" d="M61.5,35.03c-.28.03-.54.59-.49,1.07.06.54.48.9,1.01,1.34.55.46.6.34,1.12.79.62.54.73.87,1.08.87.29,0,.54-.22.79-.45.38-.34.32-.5.58-.62.41-.19.74.11.95-.1.12-.12.03-.25.21-.59.04-.08.11-.21.24-.36.25-.27.49-.29.49-.41,0-.14-.33-.26-.37-.27-.95-.32-1.75.63-2.91.46-.58-.08-1.55-.49-2.16-1.27-.17-.22-.34-.49-.55-.47h0Z"/>
        <path class="cls-9" d="M65.19,25.22c-.14-.13-.53-.51-.97-1.11-.22-.3-.37-.56-.47-.74.3,1.13.51,2.29.15,2.47-.2.1-.53-.1-.7-.28-.43-.44-.21-1.02-.6-2.2-.05-.16-.1-.29-.13-.36.08.37.16.92.1,1.57-.11,1.08-.62,2.34-1.04,2.31-.24-.02-.39-.45-.57-.98-.33-.96-.39-1.82-.37-2.46-.05.14-.12.36-.2.62-.22.78-.2,1.06-.46,1.3-.16.15-.47.32-.66.22-.22-.11-.37-.6-.01-2.33-.22.3-.58.72-1.11,1.1-.82.58-1.88.95-2.02.74-.11-.16.36-.65.82-1.14.06-.06.11-.11.16-.17-.24.18-.51.37-.82.54-.43.25-.83.42-1.19.55,0-.42.06-1.1.37-1.86.28-.69.65-1.18.92-1.48-.77-.41-1.73-.86-1.88-.66-.08.11.11.3.26.64.4.92.08,1.9-.11,2.5-.26.81-.52.96-.72,1.37,0,0-.13.27-.2.6-.15.71.08,1.38.19,1.66.02-.03.05-.08.08-.14.12-.28.05-.51.02-.82,0-.1-.03-.46.07-.86.03-.13.15-.61.36-.62.14,0,.19.22.38.23.22.02.33-.26.5-.22.16.03.18.28.27.4.17.23.82.21,2.71-.66-.03.44.19.86.55,1.07.43.25,1.01.17,1.39-.22-.1.77.3,1.44.85,1.61.38.11.86-.01,1.13-.31.39-.41.23-1,.5-1.08.21-.06.32.28.77.35.05,0,.41.06.69-.15.3-.22.41-.68.28-1.14.32.35.73.87,1.09,1.57,0,0,.26.5.43,1.01.75,2.24-1.18,5.55.02,6.81.38.39,1.07.59,1.13.51.04-.06-.23-.28-.43-.52-.49-.6-.53-1.42-.34-3.32.23-2.22.37-1.89.31-2.48-.11-1.19-.7-2.62-1.52-3.43h0Z"/>
        <path class="cls-9" d="M57.93,23.05c-.22.23-.5.48-.83.73.32-.33.61-.57.83-.73Z"/>
        <path class="cls-9" d="M55.56,37.77c-.01.24-.04.61-.07,1.06-.07.95-.1,1-.09,1.31.01.33.04.94.35,1.57.2.41.44.67.63.87.8.85,1.62,1.63,2.24,2.2-.32-.28-1.76-1.51-3.37-2.42-.93-.53-1.4-.79-1.9-.95-.18-.05-.71-.21-.69-.29,0-.04.13-.03.28-.07.27-.08.45-.28.55-.43.1-.15.52-.81.51-2.31,0-.32-.02-.59-.04-.75-.25.11-.56.21-.65.09-.22-.26.86-1.32.64-1.62-.09-.12-.4-.14-1.38.27.33-.77.67-1.54,1-2.31-.55.03-1.1.06-1.66.09.85-.45,1.39-1.26,1.39-2.12,0-.62-.28-1.08-.43-1.29.18-.03.43-.1.69-.27.35-.22.48-.47.56-.43.14.06-.04.81-.12,1.19-.37,1.79-.05,3.48.26,4.38.19.55.55,1.36,1.31,2.23h0Z"/>
        <path class="cls-9" d="M5.9,70.63c-.07-.02.03-.39.09-.9.09-.85-.03-1.51-.1-1.97-.22-1.27-.69-2-.61-2.05.07-.04.52.56.84,1.28.22.49.67,1.52.36,2.62-.16.56-.48,1.05-.57,1.02h0Z"/>
        <path class="cls-9" d="M1.07,71.44c-.01-.15.75-.09,1.66-.65.92-.57,1.48-1.42,1.84-1.99.46-.71.6-1.18.67-1.15.1.04-.05,1.1-.6,2.1-.29.54-.8,1.49-1.82,1.82-.84.27-1.74.04-1.75-.12Z"/>
        <path class="cls-9" d="M.17,70.02c-.01-.15.75-.09,1.66-.65,1.06-.66,1.75-1.82,1.84-1.99.22-.38.31-.63.37-.61.13.04.14,1.05-.34,1.92-.08.15-.64,1.13-1.79,1.46-.85.24-1.74.04-1.75-.12Z"/>
        <path class="cls-9" d="M12.39,80.79c-.06.12-.44.92-.07,1.56.26.45.74.56,1.45.73,1.23.29,2.24.04,2.72-.11.4-.12.71-.27.93-.39.06.1.14.26.15.47.04.44-.2.78-.29.88-.41.48-1.26.07-2.91-.1-1.86-.2-2.7.1-3.26-.55-.08-.1-.38-.45-.35-.88.02-.27.14-.32.36-.88.19-.49.16-.62.31-.74.13-.11.39-.19.95.01h0Z"/>
        <path class="cls-9" d="M15.33,52.27c0-.46-.07-.96-.41-1.2-.85-.6-2.88.88-3.87,1.78-1.78,1.62-2.56,3.47-3.13,4.84-.67,1.64-.6,2.15-1.88,6.06-.26.8-.49,1.46-.64,1.89.31.44.62.88.93,1.32.34-5.79,2.23-9.4,3.53-11.33.71-1.06,3.04-4.52,4.67-4.03.38.11.63.41.8.67h0Z"/>
        <path class="cls-9" d="M31.59,83.97c-1.43.16-3.62.32-5.42.07-.5-.07-1.09-.19-1.26-.61-.2-.49.28-1.1.4-1.23-.46-.17-.91-.33-1.37-.5.1-.53.2-1.31.08-2.25-.15-1.22-.58-2.08-.7-2.31-.46-.89-1.11-1.46-2.37-2.57-1.83-1.6-2.38-1.72-2.99-2.76-.07-.11-.15-.26-.25-.44-.22.18-.49.29-.71.37-.73-3.58-1.21-4.47-1.54-4.45-.45.03-.4,1.75-1.65,2.4-.7.37-1.15.04-1.62.53-.35.37-.44.9-.61,1.9-.22,1.35,0,1.52-.14,3.02-.15,1.57-.46,2.09-.07,2.81.1.19.29.47.88.87,1.8,1.21,3.76,1.07,3.76,1.24,0,.12-.94.32-4.48.65-.01-.26-.07-.58-.29-.72-.28-.17-.57.07-.81-.03-.45-.19-.33-1.46-.22-2.33.38-2.89,1.01-3.52.62-4.68-.08-.24-.27-.69-.37-1.38-.09-.62-.14-.99-.02-1.35.35-1.05,1.76-.75,2.63-1.93.52-.71.54-1.52.55-2.21.03-1.18-.34-1.92-.65-2.81-.19-.54-1.31-3.72-.36-6.38.24-.67.77-1.76,2.09-2.84-.06.46-.1,1.11.02,1.89.05.31.23,1.3.89,2.41.6,1.01,1.35,1.61,1.87,2.15,1.78,1.84,1.97,1.88,2.3,2.52.15.28.75,1.51.54,3.02-.24,1.79-1.36,1.98-1.39,3.28-.01.68.28,1.1,2.68,3.91,2.44,2.86,2.59,2.96,2.83,3.57.7,1.74.47,3.32,1.22,3.52.43.11.77-.33,1.84-.33.34,0,.62.05.81.09-.35.06-.99.23-1.59.74-.27.23-.95.82-.82,1.37.12.55.96.77,1.56.92.77.2,2.13.39,3.95-.11.06.08.13.21.18.38.07.27.02.5-.02.61h0Z"/>
        <path class="cls-9" d="M47.05,67.31c-.07.03.54.87.46,1.99-.07.96-.57,1.09-.52,1.9.04.77.51.83.84,1.92.13.43.35,1.16.16,1.98-.1.46-.43,1.41-1.01,2.36-.1.16-.27.42-.17.58.14.24.8.09,1.17-.02,0,.34-.03.82-.12,1.37-.18,1.03-.46,1.45-.25,2.03.04.1.23.62.67.7.41.08.86-.24.96-.59.09-.31-.14-.49-.23-.95-.12-.59.09-1.07.19-1.36.33-.97.33-2.38.33-4.19,0-1.17-.16-2.96-.95-5.22-1.14-2.07-1.46-2.54-1.51-2.51h0Z"/>
        <path class="cls-9" d="M54.59,21.28c-.06,0,.41,1.42-.3,2.41-.08.12-.44.59-1.05.73-.23.06-.65.11-1.6-.34-1-.47-1.66-1.07-1.9-1.28-.66-.58-1.57-1.5-2.43-2.87.18.57.53,1.42,1.21,2.29.65.82,1.31,1.28,1.93,1.71.65.45,1.63,1.03,2.94,1.48.16.05.32.1.48.15.34-.45.82-1.22.96-2.25.14-1.1-.16-2.03-.23-2.03h0Z"/>
        <path class="cls-9" d="M45.83,58.51c.56.87,1.06,2,1.14,3.34.05.92-.14,1.3-.05,2.16.16,1.51.88,1.88,1.49,3.28,1.14,2.61.64,5.89,1.54,7.45.06.11.19.31.42.42.71.36,1.73-.4,2.05-.66-.11.24-.34.67-.79,1.03-.7.56-1.47.61-1.73.61-.08.88-.19,1.58-.28,2.06-.21,1.16-.41,1.83-.09,2.58.11.26.26.46.36.58.28-.25.74-.6,1.39-.85.91-.34,1.71-.29,2.12-.23-.32.04-1.18.19-1.87.91-.22.23-.86.89-.68,1.45.26.84,2.14.89,2.82.91,1.16.03,2.11-.21,2.72-.41.03.31.06.62.09.93-.84.06-1.77.08-2.77.05-1.03-.03-1.97-.12-2.83-.23-.31-.07-.86-.23-1.34-.69-.2-.19-.56-.59-.78-1.34-.56-1.92.55-3.42.53-6.31,0-.95-.13-1.63-.37-2.94-.28-1.53-.5-2.7-1.11-4.07-.7-1.55-1.16-1.66-1.9-3.32-.51-1.14-.77-2.15-.9-2.8.24.16.48.32.72.48.03-1.46.06-2.92.09-4.38h0Z"/>
        <path class="cls-9" d="M28.42,56.84c.18.24.47.65.73,1.2.68,1.43.5,2.85.61,4.37.12,1.77,1.26,3.42,2.91,4.07.97.38,2.03.41,3.07.44,1.71.05,3.4.06,5.07-.3,1.21-.26,2.69-.67,3.43-1.76.11-.16.2-.34.26-.53.47-1.44-.74-2.94-.95-3.19.23.14.56.37.85.74.34.42.41.74.7,1.61.38,1.13.62,1.81,1.04,2.51.27.44.54.78.72.99-.41.11-1.04.26-1.82.4-1.72.32-3.05.39-3.79.43,0,0-1.74.09-4.08.05-4.27-.07-5.81,0-7.68-.69-.79-.29-1.41-.62-1.79-.85.25,1.22,0,1.83-.28,2.16-.46.54-.98.34-1.52,1.03-.33.43-.31.73-.84,1.31-.38.42-.59.47-.73.44-.19-.04-.34-.23-.39-.4-.17-.53.45-1.17.7-1.43.63-.68,1.49-1.76,2.59-3.6.52-1.04,1.23-2.7,1.47-4.66.13-1.05.09-1.89.08-2.06-.05-.93-.21-1.72-.37-2.3h0Z"/>
        <path class="cls-9" d="M60.85,41.89c.03.55.1,1.35.34,2.3.49,1.93,1.37,3.28,1.18,3.41-.09.06-.34-.24-.84-.66-.66-.55-1.29-.89-1.73-1.1.42.88.95,2.14,1.38,3.73.03.1.57,2.13.3,2.23-.18.07-.51-.8-1.45-1.76-.53-.54-1.04-.9-1.4-1.12.39.88.79,2.01,1.06,3.36.18.9.26,1.73.29,2.45-.2-.52-.56-1.25-1.22-1.93-.25-.26-.5-.47-.73-.64.13.75.21,1.68.15,2.74-.12,2-.72,3.58-1.2,4.57-.2-1.28-.43-1.58-.61-1.59-.39-.03-.61,1.28-1.56,2.67-.68,1-1.48,1.66-2.09,2.08-.13.34-.25.73-.34,1.17-.2.88-.22,1.67-.19,2.3.67-.37,1.57-.95,2.45-1.86,1.17-1.21,1.81-2.46,2.14-3.28.21.54.41,1.08.62,1.62.24-1.86.75-3.28,1.21-4.28.53-1.15,1.24-2.26,1.4-2.19.19.08-.48,1.73-.26,1.84.18.09.92-.9,1.39-1.97.5-1.12.62-2.17.64-2.91.27.68.54,1.35.81,2.03.29-.79.6-1.91.68-3.28.08-1.21-.04-2.24-.19-3.02.22.25.62.63,1.21.89.31.14.61.21.84.25-.48-.59-.98-1.29-1.45-2.12-.96-1.69-1.44-3.29-1.7-4.51.08.07.63.58,1.35.45.3-.05.53-.2.65-.3-.31-.3-.62-.6-.93-.9-.09-.21-.17-.42-.26-.64-.26.06-.59.1-.98.1s-.73-.05-.99-.11h0Z"/>
        <path class="cls-4" d="M16.55,84.23c-.3,0-.66-.06-1.08-.17-.52-.14-1.17-.15-1.81-.17-1.35-.03-2.75-.07-3.02-1.26-.09-.41.12-.76.32-1.1.18-.3.35-.58.32-.88-.02-.17-.02-.33-.02-.5-.47.02-1.09-.17-1.18-.57-.23-1.03.01-2.13.27-3.3.28-1.27.57-2.59.21-3.84-.24-.85-.52-1.81-.02-2.56.28-.43.74-.65,1.19-.87.27-.13.56-.27.79-.46,1.42-1.19.89-3.24.46-4.89l-.12-.48c-.64-2.78-1.43-6.25.61-8.15,1.95-1.82,1.66-2.76,1.52-3.01-.17-.31-.5-.4-.74-.34-1.73.49-3.61,2.49-5.17,5.49-1.56,3.01-2.56,6.58-2.76,9.82,0,.07-.07.12-.13.11-.07,0-.11-.06-.11-.13.42-6.93,4.35-14.47,8.1-15.52.33-.09.78.04,1.01.45.2.36.45,1.41-1.57,3.29-1.93,1.81-1.16,5.2-.54,7.92l.04.19.07.29c.44,1.72,1,3.85-.54,5.13-.26.2-.55.35-.84.48-.44.21-.85.41-1.1.79-.44.65-.18,1.55.05,2.34.38,1.32.08,2.67-.2,3.97-.25,1.14-.48,2.21-.27,3.19.05.24.55.4.95.38.04-.28.24-.46.44-.47.13,0,.24.08.25.21.02.23-.15.4-.46.47,0,.17,0,.34.01.5.04.38-.16.71-.35,1.03-.19.32-.37.61-.3.93.23,1.02,1.47,1.05,2.79,1.08.65.02,1.31.03,1.86.17,1.39.37,1.74.04,1.88-.29.33-.74-.52-1.5-1.27-2.16-.17-.15-.32-.29-.46-.42-.05-.05-.05-.12,0-.17.05-.05.12-.05.17,0,.14.13.29.27.45.41.77.68,1.73,1.54,1.33,2.44-.17.39-.52.59-1.08.59h0ZM11.73,79.68s-.04,0-.08.04c-.03.02-.08.07-.11.16.1-.03.21-.09.2-.2Z"/>
        <path class="cls-4" d="M61.85,42h0c-1.71,0-3.32-.97-4.52-2.71-5.17-2.97-3.32-8.91-3.24-9.17.02-.06.09-.1.15-.08.06.02.1.09.08.15-.08.24-1.88,6.03,3.15,8.9h.02s.02.04.02.04c1.16,1.69,2.7,2.63,4.34,2.63h0c1.39,0,2.71-.66,3.45-1.74l.02-.02c.25-.22.57-.22.88-.22.14,0,.27,0,.39-.01.34-.05.65-.29.82-.66.17-.37.16-.76-.03-1.05-.04-.06-.09-.13-.13-.19-.17-.22-.36-.48-.27-.78.06-.21.22-.33.37-.45.09-.07.17-.13.23-.21.27-.35.02-.89-.33-1.25-.06-.06-.12-.12-.18-.18-.34-.34-.69-.68-.73-1.17-.25-1.53-.09-2.55.06-3.45.05-.3.09-.58.12-.87.12-1.27-.15-2.41-.77-3.23-.04-.05-.03-.13.02-.17.05-.04.13-.03.17.02.66.86.95,2.07.82,3.39-.03.29-.07.58-.12.88-.14.88-.3,1.88-.06,3.38.03.41.35.72.66,1.03.06.06.12.12.18.18.43.45.7,1.1.34,1.56-.08.1-.18.18-.27.25-.13.1-.25.19-.29.32-.05.19.09.37.23.57.05.07.1.13.14.2.23.36.25.84.04,1.28s-.58.74-1,.8c-.14.02-.28.02-.42.02-.27,0-.53,0-.71.15-.79,1.13-2.18,1.83-3.63,1.83h0Z"/>
        <path class="cls-4" d="M66.78,25.82c-.05,0-.1-.03-.11-.09-.02-.06.02-.13.08-.15.05-.02,5.39-1.6,6.84-5.38.72-1.9.36-4.04-1.1-6.38-.92-1.28-1.88-2.44-2.65-3.37-.97-1.18-1.61-1.95-1.71-2.37-.14-.58.18-1.17.64-1.52-1.14.05-1.88.4-2.21,1.04-.62,1.2.36,3.15.78,3.72.04.05,3.52,4.93,2.5,7.72-.33.89-1.08,1.48-2.22,1.75-.88.26-1.29.88-1.21,1.84,0,.07-.04.12-.11.13-.07,0-.12-.04-.13-.11-.09-1.08.38-1.8,1.38-2.09,1.07-.25,1.76-.79,2.06-1.6.98-2.68-2.43-7.45-2.46-7.5-.33-.45-1.53-2.57-.8-3.98.42-.82,1.4-1.21,2.92-1.17.06,0,.11.05.11.1,0,.06-.03.11-.08.13-.56.17-1.1.84-.95,1.47.09.36.78,1.2,1.66,2.27.77.94,1.73,2.1,2.66,3.39,1.5,2.4,1.87,4.62,1.12,6.59-1.49,3.89-6.94,5.51-6.99,5.52-.01,0-.02,0-.03,0h0Z"/>
        <path class="cls-4" d="M53.88,25.66l-.08-.02s-5.02-1.49-6.43-5.18c-.76-2-.36-4.27,1.18-6.75.98-1.36,1.97-2.58,2.76-3.56.82-1.01,1.46-1.81,1.57-2.12.09-.26.07-.51-.05-.75-.16-.32-.51-.59-.9-.71l-.72-.21.75-.02c1.52-.04,2.5.36,2.92,1.17.72,1.4-.47,3.52-.8,3.98-.04.05-3.44,4.82-2.46,7.5.3.82.99,1.35,2.05,1.6.66.19,1.09.55,1.28,1.09.55,1.51-.96,3.82-1.03,3.92l-.05.07h0ZM52.5,6.58c.23.16.42.36.54.59.15.3.17.62.06.94-.12.36-.72,1.09-1.61,2.19-.79.98-1.78,2.19-2.75,3.54-1.5,2.41-1.89,4.61-1.16,6.53,1.27,3.32,5.54,4.8,6.19,5.01.25-.41,1.42-2.38.96-3.63-.17-.46-.54-.77-1.12-.94-1.14-.26-1.89-.85-2.22-1.75-1.02-2.79,2.46-7.67,2.5-7.72.43-.57,1.4-2.52.78-3.72-.33-.63-1.06-.98-2.17-1.04Z"/>
        <path class="cls-4" d="M61.57,27c-.06,0-.13-.01-.19-.04-.26-.12-.45-.45-.52-.74-.21-.79-.32-1.59-.33-2.4-.06.17-.08.37-.11.57-.02.16-.04.32-.08.48-.09.37-.42.72-.76.8-.21.05-.41,0-.55-.16-.23-.26-.16-.64-.12-.85l.17-.96c-.81,1.04-2.09,1.43-3.15,1.66-.04,0-.09,0-.12-.05-.03-.04-.03-.09,0-.13.11-.2.24-.39.36-.56-.35.2-.71.36-1.09.48-.04.01-.08,0-.11-.02-.03-.03-.05-.06-.05-.1.09-1.21.54-2.4,1.25-3.38-.5-.31-1.04-.54-1.6-.69-.03,0-.06-.03-.07-.05-.07-.11-.07-.23,0-.35.13-.21.47-.31.7-.29.38.04.77.13,1.13.27-.39-.45-.91-.79-1.48-.95-.04-.01-.07-.04-.08-.08s0-.08.02-.11c.56-.64,1.53-.91,2.46-.69.62.15,1.23.5,1.78,1.03-.34-.88-.85-1.69-1.5-2.37-.03-.03-.04-.08-.03-.12.01-.04.05-.07.09-.08,1.3-.25,2.72.45,3.38,1.6.14-.35.5-.63.9-.75.16-.05.33-.09.5-.12.34-.07.66-.14.92-.34.05-.03.11-.03.15,0,.04.04.05.1.02.15-.35.61-.6,1.28-.73,1.97.32-.09.61-.24.93-.4.22-.11.44-.23.68-.32.6-.24,1.47-.31,1.95.27.03.03.03.07.02.11-.01.04-.04.07-.08.08-.64.17-1.26.45-1.8.83,1.18.83,1.8,1.93,1.64,2.92,0,.04-.03.07-.06.09-.03.02-.07.02-.1,0l-.7-.3c.73.86,1.31,1.81,1.75,2.85.02.04,0,.09-.02.12-.03.03-.07.05-.11.04-1.14-.18-2.18-.87-2.82-1.83.09.55.13,1.1.12,1.66,0,.04-.02.08-.06.1-.16.1-.36.12-.55.06-.26-.08-.5-.29-.62-.55-.15-.32-.16-.67-.17-1.01,0-.09,0-.17,0-.26-.01-.24-.05-.45-.12-.62.18,1.07-.02,2.19-.55,3.14-.07.12-.15.25-.29.32-.07.03-.13.05-.2.05h0ZM60.65,23.27s.03,0,.05,0c.04.02.07.06.07.11-.03.94.07,1.87.31,2.77.06.23.22.5.39.58.07.03.13.03.19,0,.08-.04.14-.14.19-.23.59-1.05.75-2.32.41-3.48-.01-.05,0-.1.04-.13.04-.03.09-.03.14,0,.32.21.49.61.52,1.19,0,.09,0,.17,0,.26,0,.33.02.64.14.92.09.19.27.36.47.42.08.03.19.04.31,0,0-.8-.09-1.6-.3-2.37-.02-.06.02-.12.08-.14.06-.02.12.01.15.07.47,1.21,1.57,2.14,2.83,2.41-.49-1.1-1.15-2.1-1.97-2.98-.04-.04-.04-.1-.01-.15.03-.05.09-.06.14-.04l1.05.45c.06-.89-.57-1.88-1.7-2.62-.03-.02-.05-.06-.05-.1,0-.04.02-.08.05-.1.54-.4,1.17-.71,1.82-.91-.4-.31-1.04-.27-1.54-.07-.22.09-.44.2-.65.31-.37.19-.74.38-1.16.47-.04,0-.08,0-.1-.03-.03-.03-.04-.07-.04-.1.1-.66.31-1.29.6-1.88-.21.08-.43.13-.65.18-.16.03-.32.07-.48.12-.46.14-.89.55-.77.96.02.06-.02.13-.08.15-.06.02-.13-.01-.15-.07-.45-1.22-1.8-2.04-3.09-1.9.72.81,1.26,1.78,1.58,2.81.02.05,0,.11-.06.14-.05.03-.11.02-.15-.03-.62-.71-1.32-1.18-2.04-1.35-.78-.18-1.58,0-2.1.48.69.24,1.3.73,1.69,1.35.03.05.02.1-.01.14s-.09.05-.14.03c-.45-.24-.96-.38-1.47-.43-.18-.02-.41.07-.48.18-.01.02-.02.04-.01.06.61.17,1.19.43,1.73.77.03.02.05.05.05.08,0,.03,0,.07-.02.09-.7.91-1.14,2.03-1.27,3.17.57-.21,1.1-.51,1.58-.87.13-.13.27-.26.4-.39.22-.21.44-.42.66-.66.04-.05.12-.05.16,0,.05.04.06.11.02.16-.32.4-.68.76-1.09,1.08-.28.28-.54.58-.77.94,1.11-.26,2.38-.75,3.04-1.97.03-.05.09-.07.14-.06.06.02.09.08.08.13l-.27,1.52c-.04.23-.07.5.07.65.08.09.19.12.31.09.25-.06.52-.34.59-.63.04-.14.06-.3.08-.45.05-.38.1-.78.39-1.06.02-.02.05-.03.08-.03h0Z"/>
        <path class="cls-3" d="M53.92,27.76c-.06,0-.12-.05-.12-.11,0-.02-.01-.05-.02-.09-.09-.37-.37-1.5-.06-2.09.03-.06.1-.08.16-.05.06.03.08.1.05.16-.18.34-.15.99.08,1.92.03.14.04.16,0,.21-.02.03-.06.05-.09.05h0Z"/>
        <path class="cls-4" d="M50.83,30.94c-1.29,0-2.47-.36-3.54-1.07-1.84-1.23-2.87-3.28-3.01-4.34l-.03-.25.21.13c1.46.89,3.08.77,4.65.65,1.86-.14,3.63-.27,4.54,1.55h0c.54,1.17.68,1.9.46,2.36-.19.4-.63.54-1.09.65-.76.21-1.49.32-2.19.32h0ZM44.56,25.75c.24,1.07,1.21,2.83,2.86,3.93,1.59,1.06,3.45,1.3,5.54.72.43-.11.79-.22.94-.53.18-.38.04-1.07-.46-2.15-.84-1.67-2.45-1.55-4.31-1.42-1.46.11-3.1.23-4.57-.56Z"/>
        <path class="cls-6" d="M4.68,65.28s-.05,0-.07-.03c-.05-.04-.06-.12-.02-.17,1.26-1.54,1.27-3.64,1.27-5.86,0-1.75,0-3.55.6-5.28,1.52-4.45,5.17-8.4,9.92-7.25.81-3.69,3.7-7.71,4.39-8.55-.18-.26-.54-.51-.86-.59-.11-.02-.26-.04-.35.03-.05.04-.13.03-.17-.03-.04-.05-.03-.13.03-.17h0c1.18-.83,3.53-1.48,4.66-1.79.15-.04.27-.08.37-.1-.27-.42-.78-.74-1.45-.9-.06-.01-.1-.07-.09-.13,0-.06.06-.11.11-.11,7.74-.22,8.79,3.79,9.55,6.71.51,1.97.92,3.52,3.08,3.28,1.64-.16,2.88-3.15,3.79-5.34.44-1.06.78-1.89,1.1-2.29-.44.03-.86.2-1.19.49-.03.03-.08.04-.12.02-.04-.02-.07-.06-.07-.1-.06-.91.77-1.67,1.6-1.86.74-.18,1.5-.04,2.2.12-.72-.86-1.69-1.18-2.38-1.35-.06-.01-.19-.05-.21-.15-.01-.06.01-.11.06-.15.33-.25,3.78-.42,5.84.47-.31-.49-.9-.94-1.24-1.2-.26-.2-.31-.24-.33-.32,0-.06.02-.15.13-.18.44-.14,2.81.62,4.34,3.16-.12-.39-.24-.82-.25-1.07,0-.04.01-.07.04-.09.03-.02.06-.03.1-.03,1.34.19,2.11,2.44,2.73,4.26.37,1.1.76,2.24,1.09,2.21.38-.05.87-.62,1.05-3.1,0-.02-.03-.06-.08-.08-.08-.04-.29-.05-.77.24-.05.03-.11.02-.14-.02-.04-.04-.05-.1-.02-.14.22-.37.36-.6.5-.83.13-.21.27-.43.48-.79-.02-.06-.07-.17-.2-.21-.15-.05-.53-.03-1.28.73-.04.04-.1.05-.15.02-.05-.03-.07-.09-.05-.14.16-.41.41-.9.65-1.36.19-.38.39-.76.54-1.11-.56.13-1.72.23-1.83.05-.03-.06-.02-.13.04-.16.61-.4,1.04-.81,1.3-1.26.32-.56.38-1.21.15-1.7-.03-.06,0-.13.06-.16.06-.03.13,0,.16.06.26.56.2,1.3-.16,1.92-.24.42-.61.8-1.12,1.16h.02c.47,0,1.34-.08,1.53-.2.04-.03.1-.02.14,0,.04.03.05.09.04.13-.16.41-.41.9-.65,1.36-.14.28-.29.57-.42.84.48-.39.87-.52,1.15-.4.24.1.33.36.32.45,0,.03-.01.05-.03.08-.21.37-.35.59-.49.81-.09.14-.18.29-.29.47.26-.11.47-.13.62-.06.18.08.21.24.21.26,0,0,0,.02,0,.03-.16,2.16-.57,3.25-1.26,3.33-.52.06-.86-.96-1.34-2.36-.57-1.67-1.27-3.74-2.38-4.06.05.29.18.74.28,1.08.19.63.21.71.09.77-.11.05-.18-.06-.23-.13-1.35-2.8-3.62-3.65-4.27-3.72.04.03.08.06.11.09.43.33,1.23.93,1.47,1.6.02.05,0,.1-.03.13-.04.03-.09.04-.13.02-1.69-.9-4.72-.86-5.64-.71.78.21,1.81.61,2.52,1.65.03.04.03.09,0,.14-.03.04-.08.06-.13.05-.76-.18-1.61-.39-2.41-.2-.66.16-1.32.7-1.41,1.38.42-.29.94-.43,1.46-.39.05,0,.1.04.11.1,0,.05-.02.11-.06.13-.32.15-.77,1.24-1.24,2.39-.93,2.24-2.2,5.31-3.98,5.48-2.36.26-2.81-1.46-3.33-3.46-.76-2.91-1.71-6.51-8.64-6.54.47.22.83.54,1.02.92.02.03.02.07,0,.1-.01.03-.04.06-.07.07-.09.03-.27.08-.52.15-.99.27-2.95.81-4.17,1.5.41.1.86.43,1.05.77.02.04.02.1-.01.13-.57.67-3.63,4.85-4.42,8.64,0,.03-.03.06-.05.08-.03.02-.06.02-.09.01-4.65-1.2-8.25,2.68-9.75,7.07-.58,1.69-.58,3.47-.58,5.2,0,2.26,0,4.4-1.33,6.01-.02.03-.06.04-.09.04h0Z"/>
        <path class="cls-4" d="M2.19,71.92c-.57,0-1.11-.21-1.47-.59-.03-.04-.04-.09-.02-.14.02-.05.07-.07.12-.06.38.05.78-.15,1.25-.61.22-.22.43-.45.62-.69-.54.38-1.19.61-1.86.62-.2,0-.51-.06-.67-.24-.08-.09-.12-.21-.11-.33,0-.03.02-.07.05-.09.94-.62,1.7-1.57,2.11-2.63-.37.23-.84.31-1.26.21-.04-.01-.08-.05-.09-.09,0-.05,0-.09.04-.12.32-.26.59-.6.84-.93.4-.52.82-1.06,1.45-1.28.62-.22,1.37-.07,1.97.38.49.36.88.92,1.17,1.65.46,1.16.62,2.92-.46,4.08-.03.04-.08.05-.13.03-.05-.02-.07-.06-.07-.11,0-.57-.08-1.57-.35-2.68-.13.6-.29,1.22-.58,1.79-.4.82-1.01,1.42-1.71,1.69-.28.11-.57.16-.85.16h0ZM1.11,71.36c.5.35,1.21.43,1.84.18.64-.25,1.21-.81,1.58-1.58.35-.71.52-1.5.65-2.24,0-.05.06-.1.11-.1.06,0,.1.03.12.09.32,1.13.45,2.21.48,2.93.78-1.07.62-2.57.21-3.58-.27-.69-.64-1.21-1.09-1.54-.53-.4-1.21-.53-1.75-.34-.57.2-.95.69-1.34,1.2-.21.28-.43.56-.69.81.41.03.84-.14,1.12-.45.04-.04.1-.05.15-.02.05.03.07.08.06.14-.37,1.25-1.2,2.39-2.28,3.12,0,.03.02.06.05.09.09.1.3.17.49.16,1.05-.02,2.06-.62,2.6-1.51.08-.14.15-.29.22-.44.03-.06.1-.09.15-.06.06.03.09.09.06.15-.07.16-.14.32-.23.47-.37.69-.84,1.32-1.4,1.87-.4.39-.77.62-1.12.67h0Z"/>
        <path class="cls-4" d="M18.39,83.61c-.23,0-.51-.08-.76-.16-.2-.06-.38-.12-.53-.13-.07,0-.11-.07-.11-.13,0-.07.07-.11.13-.11.17.02.37.08.57.14.5.15.86.24.99,0,.15-.27-.03-.56-.24-.9-.11-.17-.22-.35-.28-.53-.13-.36-.19-.67-.25-1.03-.06-.4-.25-.69-.5-.78-.08-.03-.17-.04-.26-.05h-.06c-1.25-.17-2.37-1.2-2.65-2.44-.16-.71-.07-1.46.02-2.12l.06-.48c.05-.37.1-.78-.03-1.14-.11-.32-.44-.61-.78-.56-.06.01-.13-.03-.14-.1-.01-.07.03-.13.1-.14.48-.08.89.31,1.04.71.15.41.09.86.04,1.25l-.06.48c-.08.67-.17,1.37-.02,2.04.26,1.15,1.29,2.09,2.45,2.24h.06c.1.02.21.03.31.07.48.17.62.74.65.97.06.35.11.64.24.98.06.16.16.33.26.49.23.37.46.75.25,1.14-.11.2-.29.27-.51.27h0Z"/>
        <path class="cls-4" d="M15.04,73.62s-.08-.02-.1-.05c-.04-.06-.02-.13.04-.16.78-.5,1.18-.88,1.74-1.4.16-.15.34-.32.54-.5.05-.04.12-.04.17,0,.04.05.04.12,0,.17-.2.18-.37.34-.53.5-.57.53-.97.91-1.77,1.43-.02.01-.04.02-.06.02h0Z"/>
        <path class="cls-4" d="M24.85,82.11s-.03,0-.04,0l-.99-.38.02-.1c.39-2.03-.23-4.25-1.62-5.77-.56-.62-1.25-1.13-1.91-1.63-.47-.36-.96-.72-1.41-1.13-1.32-1.2-1.97-2.62-1.77-3.89.11-.69.46-1.31.79-1.91.4-.72.78-1.39.78-2.16,0-1.1-.77-2.01-1.51-2.89-.16-.19-.32-.38-.48-.58-1.3-1.64-2.09-3.69-2.21-5.78,0-.07.05-.12.11-.12.06,0,.12.05.12.11.12,2.04.89,4.05,2.16,5.65.15.19.32.38.47.57.77.91,1.57,1.86,1.57,3.05,0,.83-.41,1.57-.81,2.28-.33.58-.66,1.19-.77,1.83-.27,1.68,1.09,3.13,1.69,3.67.44.4.92.76,1.39,1.11.67.5,1.36,1.03,1.94,1.66,1.42,1.56,2.06,3.8,1.7,5.88l.8.31c.06.02.09.09.07.15-.02.05-.06.08-.11.08h0Z"/>
        <path class="cls-4" d="M28.97,84.29c-1.07,0-2.19-.06-2.82-.14-.81-.1-1.29-.41-1.4-.88h0c-.11-.69,1.75-2.87,3.54-3.24.72-.16,1.42.12,2.06.81.97,1.06,1.51,2.79,1.42,3.06-.09.29-1.4.39-2.8.39h0ZM24.98,83.22c.11.46.71.63,1.2.69,1.92.25,5.08.15,5.36-.09.03-.24-.48-1.94-1.48-2.94-.55-.55-1.13-.76-1.73-.63-1.69.35-3.43,2.43-3.35,2.96h0Z"/>
        <path class="cls-4" d="M33.32,83c-.32,0-1.21-.76-3.03-2.6-.11-.11-.19-.19-.23-.23-.12-.11-.14-.26-.06-.4.18-.31.84-.54,1.22-.43.5.14.83.57,1.09.97.87,1.33,1.37,2.23,1.16,2.6-.03.05-.08.08-.14.09,0,0-.02,0-.02,0ZM30.22,79.99s.12.12.24.24c1.97,2,2.63,2.49,2.83,2.53.11-.37-.85-1.83-1.17-2.32-.24-.36-.54-.75-.96-.88-.3-.09-.83.13-.95.32-.03.04-.02.07.02.11h0Z"/>
        <path class="cls-4" d="M30.4,79.24c-.84,0-1.68-.31-2.34-.89-.92-.81-1.54-1.94-2.09-2.93l-1.91-3.47c-.11-.19-.22-.39-.27-.62-.18-.79.42-1.53.82-2.01,2.25-2.75,3.53-5.32,3.93-7.85.24-1.54.13-3.12-.35-4.55-.02-.06.01-.13.07-.15.06-.02.13.01.15.08.48,1.47.61,3.08.36,4.66-.41,2.57-1.71,5.18-3.99,7.96-.47.57-.91,1.19-.77,1.81.04.19.15.38.24.56l1.91,3.47c.57,1.03,1.15,2.08,2.04,2.87.88.77,2.08,1.03,3.15.68.06-.02.13.01.15.08.02.06-.01.13-.08.15-.34.11-.69.17-1.04.17h0Z"/>
        <path class="cls-4" d="M24.49,71.41h-.03c-.07,0-.12-.06-.11-.12,0-.07.05-.12.12-.12h.02c.42,0,.62-.42.85-.9.2-.42.41-.86.8-1.07.06-.03.12-.07.18-.1.42-.22.85-.45,1.12-.81.61-.82.11-1.91.1-1.92-.02-.05,0-.11.04-.15.05-.03.11-.03.15,0,2.13,1.96,15.86,1.88,18.99.7.06-.02.13,0,.15.07.02.06,0,.13-.07.15-2.86,1.08-15.84,1.39-18.92-.51.12.43.21,1.17-.26,1.79-.3.41-.76.65-1.2.88-.06.03-.12.06-.18.1-.32.17-.52.58-.7.96-.24.51-.5,1.03-1.06,1.03h0Z"/>
        <path class="cls-4" d="M54.86,84.25c-.94,0-1.88-.07-2.8-.14-.72-.05-1.53-.11-2.2-.53-1.15-.71-1.47-2.24-1.39-3.43.04-.65.18-1.3.31-1.93.12-.58.25-1.19.3-1.79.1-1.19-.1-2.39-.29-3.55-.27-1.64-.55-3.34-1.38-4.82-.22-.4-.49-.78-.74-1.15-.39-.56-.78-1.14-1.05-1.78-.17-.41-.29-.85-.41-1.28-.24-.85-.46-1.66-1.04-2.24l-.1-.1s-.05-.12,0-.17c.04-.05.12-.05.17,0,.04.03.07.06.1.1l1.26,1.18c.2-1.36.2-2.73,0-4.09,0-.07.03-.12.1-.13.07,0,.12.04.13.1.22,1.46.21,2.93-.03,4.38,0,.04-.04.08-.08.09-.04.01-.09,0-.12-.03l-.64-.6c.21.45.35.95.49,1.44.12.42.24.86.4,1.25.26.62.65,1.19,1.03,1.73.26.38.53.76.76,1.17.85,1.51,1.14,3.31,1.4,4.9.19,1.17.39,2.39.29,3.61-.05.61-.18,1.22-.31,1.82-.13.62-.27,1.26-.31,1.89-.08,1.12.22,2.55,1.28,3.21.62.39,1.4.44,2.1.5,1.45.11,2.95.22,4.42.05-.04-1.57-1-2.99-2.32-3.4-.73-.23-1.6-.08-2.28.39-.59.41-.96,1-1.01,1.63,0,.07-.06.12-.13.11-.06,0-.11-.06-.11-.13.05-.7.45-1.36,1.11-1.81.74-.51,1.69-.67,2.49-.42,1.45.45,2.49,2.02,2.49,3.74,0,.06-.05.11-.1.12-.59.07-1.18.1-1.77.1h0Z"/>
        <path class="cls-4" d="M58.18,83.25c-.41,0-.87-.17-2.98-3.31l-.09-.13.15-.05c.84-.26,1.65.42,2.05,1.16.15.28.27.58.38.86.18.46.36.9.65,1.27l.15.19h-.24s-.05,0-.08,0h0ZM55.49,79.95c1.59,2.36,2.18,2.91,2.51,3.03-.22-.35-.38-.73-.52-1.11-.11-.28-.23-.57-.37-.84-.34-.63-.98-1.17-1.61-1.09h0Z"/>
        <path class="cls-4" d="M54.66,79.41s-.04,0-.06-.02c-1.4-.87-2.19-2.61-1.91-4.24.07-.39.19-.77.31-1.14.1-.32.21-.65.28-.99.29-1.45-.14-2.87-.6-4.37-.39-1.28-.8-2.6-.7-3.93.1-1.45.79-2.76,1.45-4.03.4-.78.82-1.58,1.1-2.41.27-.8.42-1.65.44-2.52,0-.07.06-.12.12-.12.07,0,.12.06.12.12-.02.89-.17,1.77-.45,2.59-.29.84-.71,1.66-1.12,2.44-.68,1.3-1.32,2.54-1.42,3.94-.09,1.29.31,2.59.69,3.85.45,1.46.91,2.97.61,4.48-.07.35-.18.69-.29,1.01-.12.36-.24.73-.3,1.11-.26,1.54.48,3.18,1.8,4,.06.03.07.11.04.16-.02.04-.06.06-.1.06h0Z"/>
        <path class="cls-4" d="M52.64,65.91s-.07-.02-.09-.04c-.04-.05-.03-.13.02-.17.32-.26.63-.51.92-.73,1.71-1.35,2.74-2.16,3.15-4.24.01-.06.07-.1.13-.1.06,0,.11.05.11.11.02.57.2,1.14.49,1.63.28-2.29,1.16-4.47,2.54-6.31.03-.04.09-.06.14-.04.05.02.08.08.07.13l-.36,1.78c1.28-1.21,2.02-3,1.94-4.76,0-.06.04-.11.09-.12.06-.01.11.01.14.07.25.56.48,1.13.68,1.72.65-1.97.78-4.08.38-6.13-.01-.05.02-.11.07-.13.05-.02.11,0,.14.04.42.56,1.05.98,1.74,1.14-1.38-1.91-2.4-4.12-2.97-6.41-.01-.05,0-.1.05-.12s.09-.03.13,0c.45.28,1.09.51,1.52.38.13-.04.22-.1.3-.2-.59-.22-1.04-.78-1.13-1.41,0-.07.04-.12.1-.13.07,0,.12.04.13.1.08.59.53,1.11,1.1,1.26.03,0,.06.03.08.06.01.03.01.07,0,.1-.1.22-.28.37-.51.45-.44.13-1.02-.04-1.46-.27.6,2.26,1.64,4.43,3.04,6.3.03.04.03.09,0,.13-.02.04-.07.06-.12.06-.71-.09-1.39-.43-1.9-.95.33,2.07.13,4.18-.58,6.16-.02.05-.06.08-.11.08-.05,0-.09-.03-.11-.08-.16-.51-.35-1.02-.55-1.51-.09,1.76-.94,3.49-2.29,4.62-.04.03-.09.04-.14,0-.04-.03-.07-.08-.06-.13l.32-1.58c-1.23,1.8-1.99,3.89-2.21,6.06,0,.05-.04.09-.09.1-.05.01-.1,0-.13-.04-.31-.41-.52-.89-.63-1.39-.51,1.74-1.57,2.57-3.09,3.77-.29.23-.59.47-.92.73-.02.02-.05.03-.08.03h0Z"/>
        <path class="cls-4" d="M48.09,82.85c-.31,0-.62-.12-.82-.33-.38-.4-.52-1.02-.42-1.85.02-.14.04-.28.06-.43.07-.42.13-.83.08-1.22-.38.18-.79.3-1.21.36-.11.01-.46.06-.66-.16-.15-.17-.17-.43-.05-.75.2-.56.57-1.06.92-1.53.48-.65.93-1.26,1-2.01.07-.76-.27-1.45-.64-2.18-.18-.36-.36-.73-.49-1.1-.03-.1-.07-.21-.04-.33.05-.25.3-.36.5-.44l.05-.02c.78-.33,1.2-1.35.89-2.13-.02-.06,0-.13.07-.15.06-.02.13,0,.15.07.36.92-.12,2.06-1.02,2.44l-.05.02c-.16.07-.33.14-.36.27-.01.06.01.13.04.21.13.36.3.72.48,1.08.36.73.73,1.48.66,2.31-.07.82-.57,1.49-1.04,2.13-.34.46-.7.94-.89,1.47-.06.16-.11.38,0,.51.08.09.23.11.46.09.45-.06.88-.19,1.28-.4.03-.02.07-.02.11,0,.03.02.06.05.07.08.1.49.02.98-.05,1.46-.02.14-.04.28-.06.42-.09.75.03,1.31.35,1.66.2.21.56.31.87.23.13-.03.37-.13.44-.38.02-.06.08-.1.15-.08.06.02.1.08.08.15-.08.27-.3.47-.61.55-.09.02-.19.03-.28.03h0Z"/>
        <path class="cls-4" d="M11.98,80.9c-.44,0-.84-.1-1.13-.41-.04-.05-.04-.12,0-.17.05-.04.12-.04.17,0,.38.42,1.07.37,1.7.26l3.22-.55c.07,0,.13.03.14.1.01.07-.03.13-.1.14l-3.22.55c-.26.04-.53.08-.79.08h0Z"/>
        <path class="cls-5" d="M51.35,30.12c-3.27,0-5.01-2.01-6.35-3.56-.18-.21-.36-.41-.53-.61,0,0-.01-.01-.02-.02-.04-.05-.04-.12,0-.17.05-.04.12-.04.17,0l.02.02c.85.93,2.45,1.08,4.15,1.23,2.25.21,4.58.42,5.37,2.53.01.03,0,.07,0,.1-.02.03-.04.05-.07.06-1.01.28-1.92.41-2.73.41h0ZM45.33,26.58c1.68,1.94,3.83,4.21,8.56,2.94-.78-1.85-2.99-2.06-5.12-2.26-1.28-.12-2.51-.23-3.43-.68h0Z"/>
        <path class="cls-4" d="M70.45,31.33c-1.14,0-2.23-.38-2.99-1.08-.72-.67-1.01-1.53-.81-2.43.31-1.32,1.66-2.03,2.83-2.05.83-.01,1.64.18,2.43.38.38.09.77.19,1.15.26.75.14,1.77-.22,2.31-.41.4-.14.5-.17.57-.08.01.02.05.07.02.14-.78,3.53-2.84,4.67-4,5.03-.49.15-1.01.23-1.52.23ZM66.89,27.87c-.18.81.08,1.59.74,2.2,1.03.95,2.75,1.27,4.27.79,1.1-.35,3.04-1.42,3.81-4.73-.07.02-.16.06-.25.08-.57.2-1.62.56-2.43.42-.39-.07-.79-.17-1.17-.26-.77-.19-1.57-.38-2.37-.37-1.08.02-2.32.66-2.6,1.86Z"/>
        <path class="cls-5" d="M58.29,30.41c-.32,0-.64-.1-.9-.28-.31-.22-.5-.55-.56-.95-.08-.57-.08-1.67.44-2.21.21-.22.49-.32.81-.29.75.08,1.33,1.16,1.39,2.12.06.84-.27,1.43-.88,1.57h0c-.1.02-.2.03-.3.03h0ZM57.96,26.92c-.21,0-.38.07-.52.22-.39.41-.47,1.33-.37,2.01.05.33.21.6.46.79.28.2.66.28,1.01.21.69-.17.72-.98.69-1.33-.06-.84-.55-1.83-1.18-1.9-.03,0-.06,0-.1,0Z"/>
        <path class="cls-5" d="M64.83,30.73c-.27,0-.54-.14-.74-.32-.29-.27-.52-.81-.6-1.4-.07-.52-.02-.96.16-1.31.23-.45.7-.72,1.14-.67.38.05.73.33.9.74.13.31.17.67.13,1.14-.03.36-.11.72-.22,1.07-.07.23-.19.52-.44.66-.11.06-.22.09-.34.09ZM64.68,27.26c-.32,0-.64.22-.82.55-.16.3-.2.69-.14,1.17.07.54.28,1.03.53,1.26.22.2.55.34.8.2.18-.1.27-.34.34-.53.1-.33.17-.67.21-1.02.04-.43,0-.76-.11-1.03-.14-.33-.42-.56-.71-.6-.03,0-.06,0-.08,0h0Z"/>
        <path class="cls-5" d="M67.6,35.58s-.06-.01-.08-.03c-.39-.38-1.04-.69-1.67-1-.57-.27-1.15-.56-1.55-.89-.83-.68-1.43-1.59-1.71-2.56-.02-.06.02-.13.08-.15.06-.02.13.02.15.08.26.92.84,1.79,1.63,2.44.38.31.95.59,1.51.86.65.31,1.32.63,1.73,1.04.05.05.05.12,0,.17-.02.02-.05.04-.08.04h0Z"/>
        <path class="cls-5" d="M64.02,38.61s-.08-.02-.11-.07c-.22-.44-.68-.73-1.13-.99l-.04-.02c-.46-.27-.94-.54-1.23-1-.28-.44-.25-1.23.06-1.59.19-.23.47-.28.78-.15.25.11.47.22.69.32.53.26.98.49,1.63.58.94.14,1.43-.08,1.59-.18.17-.1.4-.08.65.06.06.03.08.11.05.16-.03.06-.1.08-.16.05h0c-.08-.05-.28-.15-.41-.07-.19.11-.73.36-1.75.21-.68-.1-1.17-.34-1.7-.6-.21-.11-.43-.21-.68-.32-.21-.09-.38-.06-.51.09-.24.29-.26.96-.04,1.31.26.41.71.67,1.15.92l.04.02c.48.28.97.59,1.22,1.09.03.06,0,.13-.05.16-.02,0-.04.01-.05.01h0Z"/>
        <path class="cls-5" d="M63.67,40.33c-1.08,0-2.21-.22-3.1-.77-1.43-.89-2.47-2.41-2.78-4.07-.01-.06.03-.13.09-.14.07-.01.13.03.14.1.3,1.59,1.3,3.06,2.67,3.91,1.44.9,3.55.88,5,.47.06-.02.13.02.15.08.02.06-.02.13-.08.15-.61.17-1.34.28-2.08.28h0Z"/>
        <path class="cls-5" d="M63.26,37.83l-.19-.11c-1.18-.68-1.35-.9-1.46-1.15-.05-.11-.11-.26-.05-.41.08-.19.3-.27.47-.25.18.02.33.13.43.21.45.36.74.92.78,1.48v.22s.01,0,.01,0ZM61.98,36.15c-.09,0-.17.04-.19.1-.02.05,0,.12.04.22.07.16.15.32,1.16.92-.08-.42-.32-.81-.66-1.08-.12-.1-.22-.15-.31-.16-.01,0-.02,0-.03,0Z"/>
        <path class="cls-5" d="M65.01,38.21s-.05,0-.07,0c-.08-.02-.15-.06-.19-.13-.06-.1-.04-.22.03-.35.12-.2.33-.33.5-.45.31-.2.62-.41.92-.61.06-.04.19-.13.33-.08.07.02.13.08.16.15.04.09.03.21-.02.31-.02.05-.05.09-.08.13-.04.05-.07.1-.08.14-.01.04,0,.09,0,.15,0,.13,0,.3-.16.39-.08.05-.18.02-.34-.02-.17-.04-.4-.11-.5-.01-.03.03-.06.07-.09.12-.04.06-.09.13-.16.18-.07.06-.17.09-.27.09h0ZM66.47,36.81s-.1.04-.12.06c-.31.2-.62.4-.92.61-.16.11-.33.22-.43.38-.03.05-.04.09-.03.1,0,0,.02.01.03.02.04,0,.1,0,.14-.04.04-.04.08-.09.12-.14.04-.05.07-.1.12-.15.19-.19.5-.11.72-.05.06.02.14.04.17.04.02-.02.03-.07.03-.17,0-.07,0-.14.02-.21.02-.09.07-.16.12-.22.02-.03.05-.07.07-.1.02-.03.02-.08,0-.11,0-.01,0-.01-.01-.02,0,0,0,0-.01,0h0Z"/>
        <path class="cls-5" d="M58.19,31.55s-.09,0-.14-.01c-.45-.07-.86-.44-.99-.77-.02-.06,0-.13.07-.15.06-.02.13,0,.15.07.1.26.45.57.81.62.23.04.44-.05.6-.24.04-.05.12-.06.17-.02.05.04.06.12.02.17-.18.22-.41.34-.67.34Z"/>
        <path class="cls-2" d="M64.78,31.47s-.05,0-.08,0c-.27-.02-.5-.14-.65-.34-.04-.05-.03-.13.02-.17.05-.04.13-.03.17.03.1.14.28.23.47.25.2.01.38-.05.5-.17.05-.05.12-.05.17,0,.05.05.05.12,0,.17-.16.16-.38.24-.61.24h0Z"/>
        <path class="cls-5" d="M67.04,28.36s-.02,0-.02,0c-.06-.01-.11-.08-.09-.14.17-.81.94-1.31,1.64-1.44.73-.14,1.49.03,2.19.23.1.03.2.06.3.09.58.17,1.19.35,1.79.36.68.02,1.39-.16,2.25-.56.53-.25.52-.35.52-.36,0-.07.03-.12.1-.13.06,0,.12.03.13.1.04.25-.29.44-.66.61-.88.41-1.65.6-2.36.58-.64-.01-1.25-.19-1.85-.37-.1-.03-.2-.06-.3-.09-.68-.19-1.4-.36-2.09-.22-.6.11-1.31.56-1.45,1.26-.01.06-.06.1-.12.1h0Z"/>
        <path class="cls-5" d="M69.77,30.47c-.09,0-.19,0-.28-.01-.91-.07-1.62-.5-2.37-.95-.13-.08-.25-.15-.38-.23-.06-.03-.07-.11-.04-.16.03-.06.11-.08.16-.04.13.08.26.15.38.23.72.44,1.41.85,2.26.92.64.05,1.34-.08,2.15-.4,1.43-.56,2.82-1.6,3.82-2.83.04-.05.12-.06.17-.02.05.04.06.12.02.17-1.03,1.27-2.45,2.32-3.92,2.9-.73.29-1.38.43-1.97.43h0Z"/>
        <path class="cls-2" d="M57.86,28.88c-.02.19-.04.38-.05.58-.11.06-.26,0-.34-.11-.07-.11-.09-.24-.1-.37,0-.09-.02-.19.03-.26.07-.11.23-.14.35-.07s.18.19.21.32c.05.24-.05.51-.1-.09Z"/>
        <path class="cls-2" d="M57.71,29.6c-.13,0-.26-.08-.33-.18-.09-.13-.11-.27-.12-.42-.01-.11-.02-.23.05-.34.1-.16.33-.21.51-.12.13.08.23.22.26.41,0,.01.05.3-.06.39l-.06.04h-.03s-.01.15-.01.15l-.05.03s-.1.04-.16.04h0ZM57.61,28.72s-.09.02-.11.05c-.03.04-.02.12-.02.19.01.12.03.23.08.31.03.04.08.08.13.08l.05-.49h.06c-.03-.05-.06-.1-.11-.12-.02-.01-.05-.02-.08-.02h0Z"/>
        <path class="cls-5" d="M59.81,30.09s-.06-.01-.08-.03c-.05-.05-.05-.12,0-.17.68-.71.31-1.42.3-1.45-.03-.06,0-.13.05-.16.06-.03.13,0,.16.05,0,0,.47.9-.33,1.73-.02.02-.05.04-.08.04h0Z"/>
        <path class="cls-2" d="M64.38,29.12c.05.09.1.17.11.27,0,.1-.05.21-.15.23-.08.02-.16-.03-.2-.09-.05-.06-.07-.14-.09-.22-.02-.07-.04-.14-.03-.22,0-.07.04-.15.11-.18.11-.05.24.04.3.15.08.14.1.32-.06.06h0Z"/>
        <path class="cls-2" d="M64.31,29.74c-.1,0-.2-.05-.27-.14-.06-.08-.09-.18-.11-.26-.02-.07-.04-.16-.03-.26.01-.12.08-.23.18-.27.18-.08.36.04.46.19.02.03.12.21.06.31h0s0,.05,0,.08c0,.14-.07.32-.24.35-.02,0-.04,0-.06,0h0ZM64.19,29.01s-.01,0-.02,0c-.02.01-.04.04-.04.08,0,.05.01.11.03.17.02.07.03.13.07.18.02.03.06.05.08.05.03,0,.05-.06.05-.11,0-.07-.05-.15-.09-.21,0,0,0,0,0,0l.07-.04s0-.01-.01-.02c-.04-.06-.09-.11-.13-.11Z"/>
      </g>
    </g>
  </g>
</svg>